<?xml version="1.0" encoding="UTF-8" standalone="no"?>
<svg
   xmlns:dc="http://purl.org/dc/elements/1.1/"
   xmlns:cc="http://creativecommons.org/ns#"
   xmlns:rdf="http://www.w3.org/1999/02/22-rdf-syntax-ns#"
   xmlns:svg="http://www.w3.org/2000/svg"
   xmlns="http://www.w3.org/2000/svg"
   xmlns:xlink="http://www.w3.org/1999/xlink"
   enable-background="new 0 0 128 128"
   viewBox="0 0 128 128"
   version="1.1"
   id="svg4837">
  <metadata
     id="metadata4841">
    <rdf:RDF>
      <cc:Work
         rdf:about="">
        <dc:format>image/svg+xml</dc:format>
        <dc:type
           rdf:resource="http://purl.org/dc/dcmitype/StillImage" />
        <dc:title></dc:title>
      </cc:Work>
    </rdf:RDF>
  </metadata>
  <path
     d="m24.24 124h-7.94c-1.66 0-3-1.34-3-3v-43.73h13.94v43.73c0 1.66-1.35 3-3 3z"
     fill="#BDBDBD"
     id="path4786" />
  <path
     d="m112.51 124h-7.94c-1.66 0-3-1.34-3-3v-43.73h13.94v43.73c0 1.66-1.34 3-3 3z"
     fill="#BDBDBD"
     id="path4788" />
  <g
     opacity=".2"
     id="g4792">
    <path
       d="m25.24 79.27v41.73c0 0.55-0.45 1-1 1h-7.94c-0.55 0-1-0.45-1-1v-41.73h9.94m2-2h-13.95v43.73c0 1.66 1.34 3 3 3h7.94c1.66 0 3-1.34 3-3v-43.73h0.01z"
       fill="#424242"
       id="path4790" />
  </g>
  <g
     opacity=".2"
     id="g4796">
    <path
       d="m113.51 79.27v41.73c0 0.55-0.45 1-1 1h-7.94c-0.55 0-1-0.45-1-1v-41.73h9.94m2-2h-13.94v43.73c0 1.66 1.34 3 3 3h7.94c1.66 0 3-1.34 3-3v-43.73z"
       fill="#424242"
       id="path4794" />
  </g>
  <linearGradient
     id="c"
     x1="64"
     x2="64"
     y1="39.192"
     y2="81.02"
     gradientUnits="userSpaceOnUse">
    <stop
       stop-color="#FFEE58"
       offset=".0256"
       id="stop4798" />
    <stop
       stop-color="#FDD642"
       offset=".4867"
       id="stop4800" />
    <stop
       stop-color="#FBC02D"
       offset="1"
       id="stop4802" />
  </linearGradient>
  <path
     d="m120 82.17h-112c-2.21 0-4-1.79-4-4v-33.54c0-2.21 1.79-4 4-4h112c2.21 0 4 1.79 4 4v33.54c0 2.21-1.79 4-4 4z"
     fill="url(#c)"
     id="path4805" />
  <circle
     cx="20.35"
     cy="31.4"
     r="9.04"
     fill="#BDBDBD"
     id="circle4807" />
  <circle
     cx="20.35"
     cy="31.4"
     r="6.73"
     fill="#F44336"
     id="circle4809" />
  <circle
     cx="108.54"
     cy="31.4"
     r="9.04"
     fill="#BDBDBD"
     id="circle4811" />
  <circle
     cx="108.54"
     cy="31.4"
     r="6.73"
     fill="#F44336"
     id="circle4813" />
  <defs
     id="defs4816">
    <path
       id="b"
       d="m120 82.17h-112c-2.21 0-4-1.79-4-4v-33.54c0-2.21 1.79-4 4-4h112c2.21 0 4 1.79 4 4v33.54c0 2.21-1.79 4-4 4z" />
  </defs>
  <clipPath
     id="a">
    <use
       xlink:href="#b"
       id="use4818" />
  </clipPath>
  <g
     clip-path="url(#a)"
     id="g4831">
    <polygon
       points="-15.62 88.64 -33.58 88.64 -2.13 34.16 15.84 34.16"
       id="polygon4821" />
    <polygon
       points="20.82 88.64 2.85 88.64 34.31 34.16 52.27 34.16"
       id="polygon4823" />
    <polygon
       points="57.26 88.64 39.29 88.64 70.74 34.16 88.71 34.16"
       id="polygon4825" />
    <polygon
       points="93.69 88.64 75.73 88.64 107.18 34.16 125.15 34.16"
       id="polygon4827" />
    <polygon
       points="130.13 88.64 112.16 88.64 143.62 34.16 161.58 34.16"
       id="polygon4829" />
  </g>
  <g
     opacity=".2"
     id="g4835">
    <path
       d="m120 43.63c0.55 0 1 0.45 1 1v33.54c0 0.55-0.45 1-1 1h-112c-0.55 0-1-0.45-1-1v-33.54c0-0.55 0.45-1 1-1h112m0-3h-112c-2.21 0-4 1.79-4 4v33.54c0 2.21 1.79 4 4 4h112c2.21 0 4-1.79 4-4v-33.54c0-2.2-1.79-4-4-4z"
       fill="#424242"
       id="path4833" />
  </g>
  <g
     id="g5338"
     transform="matrix(1.5238095,0,0,1.5238095,57.428572,57.428566)">
    <g
       id="g5313">
      <circle
         id="circle4738"
         r="21"
         cy="24"
         cx="24"
         style="fill:#4caf50" />
    </g>
    <g
       id="g4744"
       style="fill:#ffffff">
      <rect
         x="21"
         y="14"
         width="6"
         height="20"
         id="rect4740" />
      <rect
         x="14"
         y="21"
         width="20"
         height="6"
         id="rect4742" />
    </g>
  </g>
</svg>
