<?xml version="1.0" encoding="UTF-8" standalone="no"?>
<svg
   xmlns:dc="http://purl.org/dc/elements/1.1/"
   xmlns:cc="http://creativecommons.org/ns#"
   xmlns:rdf="http://www.w3.org/1999/02/22-rdf-syntax-ns#"
   xmlns:svg="http://www.w3.org/2000/svg"
   xmlns="http://www.w3.org/2000/svg"
   xmlns:xlink="http://www.w3.org/1999/xlink"
   id="svg53"
   version="1.1"
   viewBox="0 0 128 128"
   enable-background="new 0 0 128 128">
  <metadata
     id="metadata57">
    <rdf:RDF>
      <cc:Work
         rdf:about="">
        <dc:format>image/svg+xml</dc:format>
        <dc:type
           rdf:resource="http://purl.org/dc/dcmitype/StillImage" />
        <dc:title></dc:title>
      </cc:Work>
    </rdf:RDF>
  </metadata>
  <path
     id="path2"
     fill="#BDBDBD"
     d="m24.24 124h-7.94c-1.66 0-3-1.34-3-3v-43.73h13.94v43.73c0 1.66-1.35 3-3 3z" />
  <path
     id="path4"
     fill="#BDBDBD"
     d="m112.51 124h-7.94c-1.66 0-3-1.34-3-3v-43.73h13.94v43.73c0 1.66-1.34 3-3 3z" />
  <g
     id="g8"
     opacity=".2">
    <path
       id="path6"
       fill="#424242"
       d="m25.24 79.27v41.73c0 0.55-0.45 1-1 1h-7.94c-0.55 0-1-0.45-1-1v-41.73h9.94m2-2h-13.95v43.73c0 1.66 1.34 3 3 3h7.94c1.66 0 3-1.34 3-3v-43.73h0.01z" />
  </g>
  <g
     id="g12"
     opacity=".2">
    <path
       id="path10"
       fill="#424242"
       d="m113.51 79.27v41.73c0 0.55-0.45 1-1 1h-7.94c-0.55 0-1-0.45-1-1v-41.73h9.94m2-2h-13.94v43.73c0 1.66 1.34 3 3 3h7.94c1.66 0 3-1.34 3-3v-43.73z" />
  </g>
  <linearGradient
     gradientUnits="userSpaceOnUse"
     y2="81.02"
     y1="39.192"
     x2="64"
     x1="64"
     id="c">
    <stop
       id="stop14"
       offset=".0256"
       stop-color="#FFEE58" />
    <stop
       id="stop16"
       offset=".4867"
       stop-color="#FDD642" />
    <stop
       id="stop18"
       offset="1"
       stop-color="#FBC02D" />
  </linearGradient>
  <path
     id="path21"
     fill="url(#c)"
     d="m120 82.17h-112c-2.21 0-4-1.79-4-4v-33.54c0-2.21 1.79-4 4-4h112c2.21 0 4 1.79 4 4v33.54c0 2.21-1.79 4-4 4z" />
  <circle
     id="circle23"
     fill="#BDBDBD"
     r="9.04"
     cy="31.4"
     cx="20.35" />
  <circle
     id="circle25"
     fill="#F44336"
     r="6.73"
     cy="31.4"
     cx="20.35" />
  <circle
     id="circle27"
     fill="#BDBDBD"
     r="9.04"
     cy="31.4"
     cx="108.54" />
  <circle
     id="circle29"
     fill="#F44336"
     r="6.73"
     cy="31.4"
     cx="108.54" />
  <defs
     id="defs32">
    <path
       d="m120 82.17h-112c-2.21 0-4-1.79-4-4v-33.54c0-2.21 1.79-4 4-4h112c2.21 0 4 1.79 4 4v33.54c0 2.21-1.79 4-4 4z"
       id="b" />
  </defs>
  <clipPath
     id="a">
    <use
       id="use34"
       xlink:href="#b" />
  </clipPath>
  <g
     id="g47"
     clip-path="url(#a)">
    <polygon
       id="polygon37"
       points="-15.62 88.64 -33.58 88.64 -2.13 34.16 15.84 34.16" />
    <polygon
       id="polygon39"
       points="20.82 88.64 2.85 88.64 34.31 34.16 52.27 34.16" />
    <polygon
       id="polygon41"
       points="57.26 88.64 39.29 88.64 70.74 34.16 88.71 34.16" />
    <polygon
       id="polygon43"
       points="93.69 88.64 75.73 88.64 107.18 34.16 125.15 34.16" />
    <polygon
       id="polygon45"
       points="130.13 88.64 112.16 88.64 143.62 34.16 161.58 34.16" />
  </g>
  <g
     id="g51"
     opacity=".2">
    <path
       id="path49"
       fill="#424242"
       d="m120 43.63c0.55 0 1 0.45 1 1v33.54c0 0.55-0.45 1-1 1h-112c-0.55 0-1-0.45-1-1v-33.54c0-0.55 0.45-1 1-1h112m0-3h-112c-2.21 0-4 1.79-4 4v33.54c0 2.21 1.79 4 4 4h112c2.21 0 4-1.79 4-4v-33.54c0-2.2-1.79-4-4-4z" />
  </g>
  <g
     transform="matrix(3.2,0,0,3.2,-27.6,-27.6)"
     id="g838">
    <circle
       style="fill:#f44336"
       id="circle10"
       r="10"
       cy="38"
       cx="38" />
    <g
       style="fill:#ffffff"
       id="g16">
      <rect
         id="rect12"
         height="12"
         width="3"
         transform="matrix(-0.707,0.707,-0.707,-0.707,91.74,38)"
         y="32"
         x="36.5" />
      <rect
         id="rect14-4"
         height="12"
         width="3"
         transform="matrix(-0.707,-0.707,0.707,-0.707,38,91.74)"
         y="32"
         x="36.5" />
    </g>
  </g>
</svg>
