<?xml version="1.0" encoding="UTF-8" standalone="no"?>
<svg
   xmlns:dc="http://purl.org/dc/elements/1.1/"
   xmlns:cc="http://creativecommons.org/ns#"
   xmlns:rdf="http://www.w3.org/1999/02/22-rdf-syntax-ns#"
   xmlns:svg="http://www.w3.org/2000/svg"
   xmlns="http://www.w3.org/2000/svg"
   id="svg69"
   version="1.1"
   viewBox="0 0 128 128"
   enable-background="new 0 0 128 128">
  <metadata
     id="metadata75">
    <rdf:RDF>
      <cc:Work
         rdf:about="">
        <dc:format>image/svg+xml</dc:format>
        <dc:type
           rdf:resource="http://purl.org/dc/dcmitype/StillImage" />
        <dc:title></dc:title>
      </cc:Work>
    </rdf:RDF>
  </metadata>
  <defs
     id="defs73" />
  <rect
     id="rect2"
     fill="#616161"
     height="8.9"
     width="21.12"
     y="28.33"
     x="16.61"
     transform="matrix(.7071 .7071 -.7071 .7071 31.136 -9.6101)" />
  <g
     id="g6"
     opacity=".2">
    <path
       id="path4"
       fill="#424242"
       d="m22.85 25 12.1 12.1-3.46 3.46-12.11-12.1 3.47-3.46m0-2.83-6.29 6.29 14.93 14.93 6.29-6.29-14.93-14.93z" />
  </g>
  <path
     id="path8"
     fill="#757575"
     d="m29.32 26.62-8.13 8.13c-1.46 1.46-3.83 1.46-5.29 0l-0.78-0.78c-1.46-1.46-1.46-3.83 0-5.29l8.13-8.13c1.46-1.46 3.83-1.46 5.29 0l0.78 0.78c1.46 1.47 1.46 3.84 0 5.29z" />
  <g
     id="g12"
     opacity=".2">
    <path
       id="path10"
       fill="#424242"
       d="m25.9 21.46c0.46 0 0.9 0.18 1.23 0.51l0.78 0.78c0.68 0.68 0.68 1.78 0 2.46l-8.13 8.13c-0.33 0.33-0.76 0.51-1.23 0.51s-0.9-0.18-1.23-0.51l-0.78-0.78c-0.68-0.68-0.68-1.78 0-2.46l8.13-8.13c0.33-0.33 0.76-0.51 1.23-0.51m0-2c-0.96 0-1.91 0.36-2.64 1.09l-8.13 8.13c-1.46 1.46-1.46 3.83 0 5.29l0.78 0.78c0.73 0.73 1.69 1.09 2.64 1.09 0.96 0 1.91-0.36 2.64-1.09l8.13-8.13c1.46-1.46 1.46-3.83 0-5.29l-0.78-0.78c-0.73-0.72-1.69-1.09-2.64-1.09z" />
  </g>
  <rect
     id="rect14"
     fill="#616161"
     height="8.9"
     width="21.12"
     y="28.33"
     x="90.31"
     transform="matrix(-.7071 .7071 -.7071 -.7071 195.38 -15.368)" />
  <g
     id="g18"
     opacity=".2">
    <path
       id="path16"
       fill="#424242"
       d="m105.19 25 3.46 3.46-12.1 12.1-3.46-3.46 12.1-12.1m0-2.83-14.93 14.93 6.29 6.29 14.93-14.93-6.29-6.29z" />
  </g>
  <path
     id="path20"
     fill="#757575"
     d="m98.72 26.62 8.13 8.13c1.46 1.46 3.83 1.46 5.29 0l0.78-0.78c1.46-1.46 1.46-3.83 0-5.29l-8.13-8.13c-1.46-1.46-3.83-1.46-5.29 0l-0.78 0.78c-1.46 1.47-1.46 3.84 0 5.29z" />
  <g
     id="g24"
     opacity=".2">
    <path
       id="path22"
       fill="#424242"
       d="m102.14 21.46c0.46 0 0.9 0.18 1.23 0.51l8.13 8.13c0.68 0.68 0.68 1.78 0 2.46l-0.78 0.78c-0.33 0.33-0.76 0.51-1.23 0.51s-0.9-0.18-1.23-0.51l-8.13-8.13c-0.68-0.68-0.68-1.78 0-2.46l0.78-0.78c0.33-0.33 0.77-0.51 1.23-0.51m0-2c-0.96 0-1.91 0.36-2.64 1.09l-0.78 0.78c-1.46 1.46-1.46 3.83 0 5.29l8.13 8.13c0.73 0.73 1.69 1.09 2.64 1.09 0.96 0 1.91-0.36 2.64-1.09l0.78-0.78c1.46-1.46 1.46-3.83 0-5.29l-8.13-8.13c-0.72-0.72-1.68-1.09-2.64-1.09z" />
  </g>
  <rect
     id="rect26"
     fill="#616161"
     height="8.9"
     width="21.12"
     y="11.03"
     x="53.41"
     transform="matrix(6.1926e-11 1 -1 6.1926e-11 79.452 -48.495)" />
  <g
     id="g30"
     opacity=".2">
    <path
       id="path28"
       fill="#424242"
       d="m66.42 6.92v17.12h-4.9v-17.12h4.9m2-2h-8.9v21.12h8.9v-21.12z" />
  </g>
  <path
     id="path32"
     fill="#757575"
     d="m74.43 15.57h-20.36c-2.9 0-5.25-2.35-5.25-5.25v-1c0-2.9 2.35-5.25 5.25-5.25h20.36c2.9 0 5.25 2.35 5.25 5.25v1c0 2.9-2.35 5.25-5.25 5.25z" />
  <g
     id="g36"
     opacity=".2">
    <path
       id="path34"
       fill="#424242"
       d="m74.43 6.07c1.79 0 3.25 1.46 3.25 3.25v1c0 1.79-1.46 3.25-3.25 3.25h-20.36c-1.79 0-3.25-1.46-3.25-3.25v-1c0-1.79 1.46-3.25 3.25-3.25h20.36m0-2h-20.36c-2.9 0-5.25 2.35-5.25 5.25v1c0 2.9 2.35 5.25 5.25 5.25h20.36c2.9 0 5.25-2.35 5.25-5.25v-1c0-2.9-2.35-5.25-5.25-5.25z" />
  </g>
  <circle
     id="circle38"
     fill="#616161"
     r="52.03"
     cy="71.9"
     cx="64" />
  <linearGradient
     gradientUnits="userSpaceOnUse"
     y2="119.54"
     y1="41.925"
     x2="64.254"
     x1="64.254"
     id="a">
    <stop
       id="stop40"
       offset=".3212"
       stop-color="#ECEFF1" />
    <stop
       id="stop42"
       offset="1"
       stop-color="#B0BEC5" />
  </linearGradient>
  <circle
     id="circle45"
     fill="url(#a)"
     r="40.32"
     cy="71.9"
     cx="64.25" />
  <path
     id="path47"
     fill="#F44336"
     d="m63.08 46.97-3.23 27.6 4.02 2.33 4.74-2.33-3.51-27.61c-0.18-1.03-1.86-1.02-2.02 0.01z" />
  <circle
     id="circle49"
     fill="#757575"
     r="3.47"
     cy="72.01"
     cx="31.96" />
  <circle
     id="circle51"
     fill="#757575"
     r="3.47"
     cy="38.98"
     cx="63.91" />
  <circle
     id="circle53"
     fill="#757575"
     r="3.47"
     cy="103.96"
     cx="63.91" />
  <circle
     id="circle55"
     fill="#757575"
     r="3.47"
     cy="72.01"
     cx="95.86" />
  <g
     id="g59"
     opacity=".2">
    <path
       id="path57"
       fill="#424242"
       d="m64.25 33.58c21.13 0 38.32 17.19 38.32 38.32s-17.19 38.32-38.32 38.32-38.32-17.19-38.32-38.32 17.19-38.32 38.32-38.32m0-2c-22.27 0-40.32 18.05-40.32 40.32s18.05 40.32 40.32 40.32 40.32-18.05 40.32-40.32-18.05-40.32-40.32-40.32z" />
  </g>
  <g
     id="g63"
     opacity=".2">
    <path
       id="path61"
       fill="#424242"
       d="m64 22.87c27.04 0 49.03 22 49.03 49.03s-22 49.03-49.03 49.03-49.03-22-49.03-49.03 21.99-49.03 49.03-49.03m0-3c-28.74 0-52.03 23.3-52.03 52.03s23.3 52.03 52.03 52.03 52.03-23.3 52.03-52.03-23.29-52.03-52.03-52.03z" />
  </g>
  <circle
     id="circle65"
     fill="#424242"
     r="6.07"
     cy="71.9"
     cx="64" />
  <circle
     id="circle67"
     fill="#CFD8DC"
     r="2.6"
     cy="71.9"
     cx="64" />
  <g
     id="g838"
     transform="matrix(2.9175777,0,0,2.9175777,-12.304459,-12.782165)">
    <circle
       cx="38"
       cy="38"
       r="10"
       id="circle10"
       style="fill:#f44336" />
    <g
       id="g16"
       style="fill:#ffffff">
      <rect
         x="36.5"
         y="32"
         transform="matrix(-0.707,0.707,-0.707,-0.707,91.74,38)"
         width="3"
         height="12"
         id="rect12" />
      <rect
         x="36.5"
         y="32"
         transform="matrix(-0.707,-0.707,0.707,-0.707,38,91.74)"
         width="3"
         height="12"
         id="rect14-4" />
    </g>
  </g>
</svg>
